<svg xmlns="http://www.w3.org/2000/svg" width="1200" height="630" viewBox="0 0 1200 630" role="img" aria-labelledby="title desc">
  <title id="title">Loom — plan before the agent builds</title>
  <desc id="desc">A local-first planning runtime for AI coding agents.</desc>
  <defs>
    <pattern id="grid" width="74" height="74" patternUnits="userSpaceOnUse"><path d="M74 0H0V74" fill="none" stroke="#f0ecdf" stroke-opacity=".07"/></pattern>
    <radialGradient id="heat" cx="88%" cy="6%" r="65%"><stop stop-color="#d66d49" stop-opacity=".18"/><stop offset="1" stop-color="#121311" stop-opacity="0"/></radialGradient>
  </defs>
  <rect width="1200" height="630" fill="#121311"/>
  <rect width="1200" height="630" fill="url(#grid)"/>
  <rect width="1200" height="630" fill="url(#heat)"/>
  <g transform="translate(74 64)">
    <g fill="none" stroke-linecap="square" stroke-width="3"><path d="M7 0v40M20 0v40M33 0v40M46 0v40" stroke="#f0ecdf"/><path d="M0 10h53M0 21h53M0 32h53" stroke="#d66d49"/></g>
    <text x="72" y="32" fill="#f0ecdf" font-family="Segoe UI Variable, Arial, sans-serif" font-size="32" font-weight="700" letter-spacing="-1">Loom</text>
    <text x="164" y="30" fill="#9e9c93" font-family="Cascadia Code, monospace" font-size="12" letter-spacing="1.5">1.6.0</text>
  </g>
  <text x="74" y="216" fill="#d66d49" font-family="Cascadia Code, monospace" font-size="14" font-weight="700" letter-spacing="2.6">PLAN BEFORE THE AGENT BUILDS</text>
  <text x="74" y="302" fill="#f0ecdf" font-family="Segoe UI Variable, Arial, sans-serif" font-size="66" font-weight="680" letter-spacing="-3.8">One request.</text>
  <text x="74" y="378" fill="#9e9c93" font-family="Segoe UI Variable, Arial, sans-serif" font-size="66" font-weight="520" letter-spacing="-3.8">A plan bound to reality.</text>
  <g transform="translate(74 464)"><rect width="278" height="52" fill="#d66d49"/><text x="20" y="33" fill="#121311" font-family="Cascadia Code, monospace" font-size="15" font-weight="700">/loom &lt;request&gt;</text></g>
  <g transform="translate(716 104)" fill="none">
    <path d="M0 30C96 30 76 102 184 102s128-72 250-72" stroke="#f0ecdf" stroke-opacity=".58" stroke-width="2" stroke-dasharray="11 8"/>
    <path d="M0 124c105 0 90 72 205 72s126-72 229-72" stroke="#d66d49" stroke-width="2" stroke-dasharray="11 8"/>
    <path d="M0 218c98 0 78 72 194 72s132-72 240-72" stroke="#f0ecdf" stroke-opacity=".58" stroke-width="2" stroke-dasharray="11 8"/>
    <path d="M0 312c104 0 88 66 214 66s128-66 220-66" stroke="#d66d49" stroke-width="2" stroke-dasharray="11 8"/>
    <path d="M78 0v420M188 0v420M298 0v420M408 0v420" stroke="#f0ecdf" stroke-opacity=".13"/>
  </g>
  <text x="74" y="574" fill="#9e9c93" font-family="Cascadia Code, monospace" font-size="12" letter-spacing="1.7">CURRENT WORLD · DOMAIN RULES · EXACT WORK ORDERS · REAL PROOF · NO TELEMETRY</text>
</svg>
